<?xml version="1.0" encoding="utf-8"?>
<svg version="1.1" xmlns:xlink="http://www.w3.org/1999/xlink" width="5px" height="9px" xmlns="http://www.w3.org/2000/svg">
  <g transform="matrix(1 0 0 1 -1228 -162 )">
    <path d="M 4.96277193142851 3.04135853871884  C 4.97999049142868 3.06308523797276  4.98879396571419 3.08920751222021  4.98879396571419 3.11545537432465  C 4.98879396571419 3.14120088500124  4.98050834285709 3.16694639567788  4.96354870857135 3.1886730949318  C 4.9296294400001 3.23237766915358  4.86968813714293 3.24870409055831  4.81725568000002 3.22848444558787  L 3.25256758857131 2.62892801646512  L 3.25256758857131 6.14300184203751  C 3.25256758857131 6.21019134551068  3.1963807085715 6.26469647543095  3.12698861714284 6.26469647543095  L 1.87301138285716 6.26469647543095  C 1.80387821714294 6.26469647543095  1.7476913371429 6.21019134551068  1.7476913371429 6.14300184203751  L 1.7476913371429 2.62892801646512  L 0.182744319999983 3.22848444558787  C 0.130441325714173 3.24857850270126  0.0705000228572317 3.23225208129662  0.036580754285751 3.1886730949318  C 0.00253202285716725 3.14496852071005  0.00266148571427038 3.08468634936969  0.0373575314285972 3.04135853871884  L 2.40057252571432 0.0594004630820848  C 2.42439369142858 0.0293849652688323  2.46103167999991 0.0119282531515239  2.5 0.0119282531515239  C 2.53896832000009 0.0119282531515239  2.57573577142853 0.0295105531258173  2.59942747428568 0.0594004630820848  L 4.96277193142851 3.04135853871884  Z M 3.56068918857136 7.95021110367895  C 3.56068918857136 7.38205163879604  3.08568996571421 6.92139537947006  2.5 6.92139537947006  C 1.91431003428579 6.92139537947006  1.43944027428574 7.381926050939  1.43944027428574 7.95021110367895  C 1.43944027428574 8.51849615641885  1.91431003428579 8.97902682788785  2.5 8.97902682788785  C 3.08568996571421 8.97902682788785  3.56068918857136 8.51849615641885  3.56068918857136 7.95021110367895  Z " fill-rule="nonzero" fill="#666666" stroke="none" transform="matrix(1 0 0 1 1228 162 )" />
  </g>
</svg>